/* XPM */
static char *_12e25343a6d4c55d794632c8276dceb[] = {
/* columns rows colors chars-per-pixel */
"56 56 2 1 ",
"  c None",
". c white",
/* pixels */
"                       ..........                       ",
"                   ..................                   ",
"                ........................                ",
"              ........            ........              ",
"             ......                  ......             ",
"           ......                      ......           ",
"          .....                          .....          ",
"         ....                              ....         ",
"        ....                                ....        ",
"       ....                                  ....       ",
"      ....                                    ....      ",
"     ....                                      ....     ",
"     ...                                        ...     ",
"    ...                                          ...    ",
"   ....                                          ....   ",
"   ...                     ..                     ...   ",
"  ....                     ..                     ...   ",
"  ...                      ..                      ...  ",
"  ...                      ..                      ...  ",
" ...                       ..                       ... ",
" ...                       ..                       ... ",
" ...                       ..                       ... ",
" ..                        ..                        .. ",
"...                        ..                        ...",
"...                        ..                        ...",
"...                        ..                        ...",
"...                        ..                        ...",
"...                        ..                        ...",
"...                        ..                        ...",
"...                        ..                        ...",
"...                        ..                        ...",
"...                ..      ..      ..                ...",
"...                ...     ..     ...                ...",
" ..                ....    ..    ....                .. ",
" ...                ....   ..   ....                ... ",
" ...                 ....  ..  ....                 ... ",
" ...                  ............                  ... ",
"  ...                  ..........                  ...  ",
"  ...                   ........                   ...  ",
"  ....                   ......                   ...   ",
"   ...                    ....                    ...   ",
"   ....                                          ...    ",
"    ...                                          ...    ",
"     ...                                        ...     ",
"     ....                                      ....     ",
"      ....                                    ....      ",
"       ....                                  ....       ",
"        ....                                ....        ",
"         ....                              ....         ",
"          .....                          .....          ",
"           ......                      ......           ",
"             ......                  ......             ",
"              ........            .......               ",
"                 ......................                 ",
"                   ..................                   ",
"                       ..........                       "
};
