/* XPM */
static char * memory_icon_20_xpm[] = {
" 28 20 2 1",
" 	c None",
".	c #EFF0F1",
"                            ",
"                            ",
"                            ",
"                            ",
"                            ",
"                            ",
"   ........................ ",
"   .                      . ",
"     .  .... .... ....  .   ",
"     .  .  . .  . .  .  .   ",
"   .    .... .... ....    . ",
"   .                      . ",
"   ........................ ",
"     ......  ............   ",
"                            ",
"                            ",
"                            ",
"                            ",
"                            ",
"                            "};
