/* XPM */
static char * cpu_20_xpm[] = {
"21 18 3 1",
" 	c None",
".	c #EFF0F1",
"|  c #EFF0F1",
"                     ",
"       .......       ",
"      .       .      ",
"      .       .      ",
"      .       .      ",
"      .       .      ",
"      .       .      ",
"      .       .      ",
"      .       .      ",
"      .       .      ",
"   .  .       .  .   ",
"   .  .       .  .   ",
"    .  .......  .    ",
"     .         .     ",
"     ...........     ",
"          .          ",
"    .............    ",
"                     ",
"                     ";