/* XPM */
static char * cpu_20_xpm[] = {
"21 18 4 1",
" 	c None",
".	c #fc2d2d",
"|  c #EFF0F1",
"\  c #EFF0F1",
"                     ",
"    \  .......       ",
"     \.       .      ",
"      \       .      ",
"      .\      .      ",
"      . \     .      ",
"      .  \    .      ",
"      .   \   .      ",
"      .    \  .      ",
"      .     \ .      ",
"   .  .      \.  .   ",
"   .  .       \  .   ",
"    .  ....... \.    ",
"     .         .\    ",
"     ...........     ",
"          .          ",
"    .............    ",
"                     ",
"                     ";